<?xml version="1.0" standalone="no"?>
<!DOCTYPE svg PUBLIC "-//W3C//DTD SVG 20010904//EN"
 "http://www.w3.org/TR/2001/REC-SVG-20010904/DTD/svg10.dtd">
<svg version="1.0" xmlns="http://www.w3.org/2000/svg"
 width="1024.000000pt" height="1024.000000pt" viewBox="0 0 1024.000000 1024.000000"
 preserveAspectRatio="xMidYMid meet">

<g transform="translate(0.000000,1024.000000) scale(0.100000,-0.100000)"
fill="#000000" stroke="none">
<path d="M4479 8365 c69 -118 86 -188 85 -355 -1 -184 -17 -249 -118 -455 -41
-84 -85 -182 -98 -219 -13 -36 -25 -66 -28 -66 -3 0 -13 32 -23 71 -36 157
-117 273 -230 329 -33 16 -68 30 -78 30 -16 0 -17 -3 -5 -32 38 -93 28 -196
-39 -393 -56 -165 -74 -235 -81 -327 -26 -305 172 -587 531 -758 66 -32 138
-64 160 -73 39 -15 38 -13 -45 72 -92 94 -138 163 -178 269 -23 59 -26 82 -25
192 0 83 5 140 15 170 l15 45 30 -65 c64 -138 161 -238 295 -306 37 -19 68
-33 68 -32 0 2 -16 39 -35 83 -52 120 -68 207 -63 336 4 104 6 112 48 196 35
71 60 104 129 173 48 47 100 93 117 102 l32 18 -20 -73 c-38 -142 -14 -243
106 -446 82 -138 112 -216 124 -317 l7 -66 47 36 c83 63 158 185 188 305 14
54 20 47 55 -62 57 -178 13 -350 -134 -522 -16 -18 -18 -23 -6 -13 11 9 76 53
145 98 135 89 326 230 376 279 42 40 90 157 109 266 56 321 -53 649 -300 903
l-84 87 9 -40 c14 -59 12 -191 -4 -266 -19 -87 -58 -179 -112 -260 -68 -103
-70 -103 -66 18 13 373 -171 738 -475 946 -113 76 -267 143 -388 167 -33 6
-68 14 -77 16 -13 4 -8 -11 21 -61z"/>
<path d="M3294 7320 c-11 -4 -33 -22 -47 -40 -47 -56 -30 -152 33 -185 108
-56 232 49 186 159 -25 61 -107 93 -172 66z"/>
<path d="M7085 7300 c-22 -18 -107 -80 -190 -138 -485 -342 -1106 -791 -1453
-1051 l-24 -17 136 -192 c129 -181 138 -192 159 -181 50 26 58 39 51 91 -6 42
-3 52 20 83 30 39 92 75 129 75 30 0 87 -38 148 -96 l46 -45 199 152 c384 294
504 402 623 559 77 102 153 258 181 370 24 96 35 264 23 358 l-8 64 -40 -32z"/>
<path d="M2202 7063 c13 -112 28 -173 65 -268 62 -157 138 -269 269 -396 144
-138 261 -211 689 -429 176 -89 339 -174 363 -187 24 -14 45 -23 46 -21 8 13
245 505 248 515 2 7 -145 85 -362 191 -519 255 -1293 642 -1304 653 -20 18
-22 8 -14 -58z"/>
<path d="M7792 6818 c17 -87 4 -252 -26 -337 -31 -89 -87 -195 -154 -290 l-49
-70 -6 92 c-7 101 -25 174 -58 227 l-21 34 -18 -56 c-20 -65 -54 -122 -140
-239 -107 -145 -160 -274 -160 -395 0 -212 138 -421 339 -510 68 -30 70 -30
39 4 -31 31 -81 129 -97 187 -17 62 -13 146 10 221 l22 69 17 -51 c37 -106 79
-165 156 -220 26 -19 51 -34 55 -34 3 0 0 19 -8 43 -21 60 -28 194 -13 269 6
34 25 88 41 120 31 61 114 151 169 182 l33 19 -6 -24 c-41 -149 -31 -216 51
-351 l57 -93 0 -82 c0 -46 2 -83 5 -83 3 0 19 8 35 19 68 42 124 112 159 197
l25 59 15 -37 c30 -71 38 -131 26 -200 -17 -97 -55 -170 -116 -228 -61 -58
-49 -59 56 -4 166 86 269 218 306 393 18 84 18 131 0 225 -26 133 -105 285
-192 368 l-29 27 3 -54 c6 -90 -55 -191 -159 -266 -30 -21 -32 -21 -25 -3 36
92 40 318 8 437 -50 185 -184 374 -333 471 l-26 17 9 -53z"/>
<path d="M1773 6394 l-32 -26 89 -134 c50 -73 90 -136 90 -139 0 -4 -521 -736
-898 -1262 l-52 -73 1015 0 1015 0 -69 93 c-115 156 -883 1231 -888 1244 -2 6
32 66 77 133 44 66 83 127 86 135 5 11 -40 45 -60 45 -6 0 -145 -195 -152
-215 -3 -8 -9 -15 -13 -15 -4 0 -44 54 -90 120 -45 66 -83 120 -84 120 -1 -1
-16 -12 -34 -26z m241 -873 c42 -157 181 -462 273 -599 23 -36 43 -65 43 -66
0 0 -151 -1 -335 -1 -184 0 -335 1 -335 2 0 1 23 39 52 85 94 152 217 439 259
606 7 29 16 49 19 45 4 -5 14 -37 24 -72z"/>
<path d="M3879 5988 c-121 -242 -134 -281 -108 -330 6 -11 26 -26 46 -34 51
-22 97 -4 124 47 28 55 72 82 126 75 24 -3 95 -29 159 -57 65 -29 122 -52 128
-52 20 0 366 215 360 224 -3 5 -165 90 -361 187 l-355 178 -119 -238z"/>
<path d="M5050 5906 c-135 -78 -301 -177 -369 -220 -141 -88 -291 -164 -705
-357 -158 -73 -299 -145 -312 -158 -13 -13 -29 -41 -35 -63 -31 -116 119 -347
276 -424 73 -36 168 -40 225 -10 19 10 89 73 155 139 132 131 184 164 310 193
138 31 240 66 294 101 97 62 273 198 384 296 119 106 180 137 271 137 66 0 85
17 69 61 -11 29 -304 448 -313 448 -3 0 -115 -64 -250 -143z m61 -285 c72 -73
-4 -188 -93 -140 -26 14 -49 69 -41 100 17 70 84 90 134 40z m-1049 -522 c11
-6 26 -26 34 -45 12 -29 12 -39 0 -68 -17 -40 -42 -56 -86 -56 -42 0 -67 15
-85 50 -22 43 -19 68 14 101 32 31 84 39 123 18z"/>
<path d="M2903 5724 c-31 -15 -63 -66 -63 -99 0 -25 28 -73 49 -85 11 -5 37
-10 59 -10 77 0 127 74 98 143 -14 36 -59 67 -93 67 -10 0 -32 -8 -50 -16z"/>
<path d="M5718 5484 c-47 -51 -97 -74 -163 -74 -77 0 -113 -18 -197 -97 -40
-38 -87 -79 -105 -91 l-32 -22 152 -78 c186 -94 349 -193 527 -318 74 -52 154
-101 177 -110 154 -59 413 119 448 308 8 44 -17 107 -65 161 -43 49 -163 128
-275 182 -78 37 -416 175 -430 175 -2 0 -19 -16 -37 -36z m527 -404 c84 -87
-21 -216 -106 -131 -23 23 -29 38 -29 72 0 86 77 119 135 59z"/>
<path d="M7748 5122 c-120 -150 -152 -224 -128 -288 20 -52 93 -114 135 -114
14 0 14 3 0 30 -26 49 -17 101 28 167 27 41 35 41 29 3 -5 -37 30 -99 90 -158
l44 -42 54 27 c73 37 100 78 100 152 0 104 -59 195 -180 278 -90 61 -77 65
-172 -55z"/>
<path d="M8550 5209 c-58 -16 -375 -111 -381 -115 -3 -2 5 -36 18 -75 14 -40
25 -97 26 -126 l1 -54 56 -15 c30 -8 115 -33 187 -55 155 -46 205 -49 227 -17
22 31 20 70 -4 101 -16 19 -55 37 -168 73 l-147 47 142 46 c179 58 212 86 178
150 -25 50 -60 60 -135 40z"/>
<path d="M7055 5184 c-62 -67 -18 -114 157 -169 70 -22 128 -42 128 -46 0 -3
-61 -25 -136 -49 -90 -29 -140 -50 -150 -64 -20 -29 -17 -79 6 -104 34 -37 44
-35 360 62 l86 26 -4 34 c-2 19 8 71 22 119 30 99 30 97 13 97 -7 0 -100 27
-207 60 -107 33 -208 60 -223 60 -17 0 -37 -10 -52 -26z"/>
<path d="M1640 4352 c0 -1 12 -21 28 -44 l27 -42 2 -410 c5 -772 7 -837 25
-877 24 -54 87 -119 138 -143 40 -18 68 -21 247 -24 163 -3 212 -1 257 12 77
23 135 70 171 141 l30 59 3 615 3 616 24 48 24 47 -189 0 -189 0 19 -33 c20
-33 20 -52 18 -622 l-3 -588 -27 -20 c-22 -16 -43 -20 -117 -21 -84 -1 -92 1
-115 24 l-24 25 -7 556 c-7 577 -5 611 34 660 l19 24 -199 0 c-110 0 -199 -1
-199 -3z"/>
<path d="M2914 4337 c-63 -30 -120 -96 -139 -161 -21 -70 -21 -425 -1 -465 22
-42 68 -78 211 -166 314 -194 320 -200 320 -332 0 -77 -2 -84 -28 -110 -25
-26 -34 -28 -105 -28 -58 0 -85 5 -106 18 l-27 18 3 105 c2 57 2 104 1 104 -6
0 -253 -41 -270 -45 -21 -5 -23 -11 -23 -68 0 -34 5 -100 10 -146 8 -71 15
-93 44 -137 22 -33 53 -63 83 -81 48 -28 49 -28 255 -31 255 -5 295 4 368 78
74 73 84 118 78 355 -7 244 -21 281 -128 343 -177 101 -379 224 -392 239 -21
24 -33 180 -17 216 14 30 73 57 125 57 39 0 104 -24 116 -43 4 -7 8 -56 8
-110 0 -89 2 -98 18 -93 9 3 75 17 146 32 l129 28 -6 115 c-7 169 -41 243
-136 299 -46 27 -47 27 -266 30 -214 2 -221 2 -271 -21z"/>
<path d="M3720 4354 c0 -1 11 -22 25 -47 l26 -45 -3 -678 -3 -679 -22 -44
c-13 -25 -23 -46 -23 -48 0 -2 88 -3 195 -3 l195 0 -23 43 c-21 40 -22 54 -25
325 l-3 282 141 0 140 0 0 -264 c0 -270 -4 -303 -42 -358 l-19 -28 199 0 199
0 -21 43 c-21 41 -21 52 -24 716 l-3 673 26 55 c14 31 25 56 25 57 0 0 -85 1
-190 1 -104 0 -190 -2 -190 -5 0 -3 9 -23 20 -45 19 -36 20 -59 20 -307 l0
-268 -140 0 -141 0 3 268 c3 255 4 269 26 310 12 23 22 44 22 45 0 1 -88 2
-195 2 -107 0 -195 -1 -195 -1z"/>
<path d="M5008 4347 c-62 -20 -121 -69 -153 -128 l-30 -54 0 -580 0 -580 24
-45 c32 -62 57 -87 116 -118 48 -26 57 -27 247 -30 157 -3 208 -1 250 12 65
19 119 62 156 124 26 45 27 54 30 205 3 126 1 157 -10 157 -7 0 -69 7 -138 15
-69 8 -128 15 -132 15 -5 0 -8 -51 -8 -113 0 -102 -2 -116 -20 -132 -26 -24
-124 -32 -174 -15 -70 23 -68 7 -64 510 l3 452 33 29 c29 26 39 29 106 29 112
0 114 -3 118 -172 2 -83 7 -138 13 -138 6 0 51 11 100 24 50 14 110 30 133 36
l44 11 -4 157 c-4 175 -13 206 -80 268 -69 66 -82 69 -313 71 -142 2 -222 -2
-247 -10z"/>
<path d="M7070 4354 c0 -1 7 -18 15 -37 8 -20 15 -57 15 -81 0 -64 -247 -1271
-271 -1326 -11 -25 -32 -57 -46 -72 l-27 -28 208 0 208 0 -14 23 c-26 38 -27
79 -7 182 10 55 19 101 19 103 0 1 74 2 164 2 l164 0 16 -87 c21 -115 20 -151
-4 -190 l-20 -33 200 0 c110 0 200 4 200 8 0 4 -11 24 -25 43 -35 46 -42 75
-134 519 -186 902 -180 861 -156 950 l6 25 -255 0 c-141 0 -256 -1 -256 -1z
m326 -683 c25 -140 46 -259 47 -264 2 -7 -213 -11 -220 -3 -2 2 75 415 98 525
12 54 12 55 20 26 5 -16 29 -145 55 -284z"/>
<path d="M8790 4197 l0 -158 33 18 c22 13 63 19 139 23 l106 5 7 -150 c3 -82
5 -348 3 -590 -3 -428 -4 -441 -25 -487 l-22 -48 189 0 189 0 -22 38 c-22 37
-22 38 -25 638 l-3 600 105 -1 c85 -2 112 -6 145 -23 l41 -22 0 155 0 155
-430 2 -430 3 0 -158z"/>
<path d="M651 4294 l29 -57 0 -657 0 -658 -29 -56 -30 -56 308 0 c401 0 457
11 535 101 61 72 68 108 64 358 -3 251 -5 256 -91 299 -51 25 -58 37 -27 47
29 9 85 79 98 124 15 48 16 372 2 423 -16 57 -70 120 -130 153 l-55 30 -351 3
-351 3 28 -57z m556 -227 c28 -27 28 -29 28 -157 0 -128 0 -130 -28 -157 -26
-27 -33 -28 -137 -31 l-110 -4 0 192 0 192 110 -4 c104 -3 111 -4 137 -31z
m-23 -607 c51 -19 66 -63 66 -188 0 -126 -13 -171 -56 -191 -14 -6 -72 -11
-129 -11 l-105 0 0 200 0 200 99 0 c55 0 111 -4 125 -10z"/>
<path d="M5800 4311 c20 -39 20 -55 20 -723 0 -659 -1 -685 -20 -727 -11 -24
-20 -45 -20 -47 0 -2 85 -4 189 -4 l190 0 -24 53 c-23 49 -24 64 -27 274 l-3
221 35 6 c74 12 88 8 99 -26 43 -140 111 -403 111 -433 0 -20 -7 -49 -15 -65
l-16 -30 206 0 c113 0 205 2 205 5 0 3 -16 25 -35 50 -26 35 -48 89 -89 218
-93 294 -100 321 -87 325 35 12 98 73 120 117 l26 50 -1 265 c-1 296 -8 345
-64 413 -17 20 -53 49 -78 65 l-47 27 -348 3 -348 3 21 -40z m547 -245 l28
-24 6 -164 c3 -90 1 -175 -4 -191 -15 -44 -53 -57 -167 -57 l-100 0 0 230 0
230 104 0 c96 0 107 -2 133 -24z"/>
<path d="M7981 4313 c18 -35 19 -70 19 -729 l0 -691 -25 -37 c-14 -20 -25 -39
-25 -41 0 -3 88 -5 195 -5 l195 0 -22 43 c-22 40 -23 54 -26 310 l-3 267 119
0 c73 0 137 -5 165 -14 l47 -14 0 163 0 163 -37 -9 c-21 -5 -95 -9 -165 -9
l-128 0 0 185 0 185 149 0 c143 0 150 -1 205 -28 l56 -29 0 164 0 163 -369 0
-369 0 19 -37z"/>
</g>
</svg>
